# AST/ASF file generated using VICON BodyLanguage
# -----------------------------------------------
:version 1.10
:name VICON
:units
  mass 1.0
  length 0.45
  angle deg
:documentation
   .ast/.asf automatically generated from VICON data using
   VICON BodyBuilder and BodyLanguage model FoxedUp or BRILLIANT.MOD
:root
   order TX TY TZ RX RY RZ
   axis XYZ
   position 0 0 0  
   orientation 0 0 0 
:bonedata
  begin
     id 1 
     name lhipjoint
     direction 0.535335 -0.74333 0.401095 
     length 2.04549 
     axis 0 0 0  XYZ
  end
  begin
     id 2 
     name lfemur
     direction 0.34202 -0.939693 0  
     length 6.95643  
     axis 0 0 20  XYZ
    dof rx ry rz
    limits (-160.0 20.0)
           (-70.0 70.0)
           (-60.0 70.0)
  end
  begin
     id 3 
     name ltibia
     direction 0.34192 -0.939729 0   
     length 5.55969   
     axis 0 0 20   XYZ
    dof rx
    limits (-10.0 170.0)
  end
  begin
     id 4 
     name lfoot
     direction 0.216943 -0.596046 0.773088   
     length 2.27918   
     axis -90 7.62852e-016 20   XYZ
    dof rx rz
    limits (-45.0 90.0)
           (-70.0 20.0)
  end
  begin
     id 5 
     name ltoes
     direction 1.53519e-011 -4.21748e-011 1   
     length 1.05562   
     axis -90 7.62852e-016 20   XYZ
    dof rx
    limits (-90.0 20.0)
  end
  begin
     id 6 
     name rhipjoint
     direction -0.576368 -0.719173 0.38806   
     length 2.1142  
     axis 0 0 0  XYZ 
  end
  begin
     id 7 
     name rfemur
     direction -0.34202 -0.939693 0   
     length 7.07928   
     axis 0 0 -20   XYZ
    dof rx ry rz
    limits (-160.0 20.0)
           (-70.0 70.0)
           (-70.0 60.0)
  end
  begin
     id 8 
     name rtibia
     direction -0.34202 -0.939693 0   
     length 5.79974   
     axis 0 0 -20   XYZ
    dof rx
    limits (-10.0 170.0)
 end
 begin
     id 9 
     name rfoot
     direction -0.189288 -0.520065 0.832888   
     length 2.42173  
     axis -90 -7.62852e-016 -20   XYZ
    dof rx rz
    limits (-45.0 90.0)
           (-20.0 70.0)
  end
  begin
     id 10 
     name rtoes
     direction -1.53574e-011 -4.21658e-011 1   
     length 1.14469   
     axis -90 -7.62852e-016 -20   XYZ
    dof rx
    limits (-90.0 20.0)
  end
  begin
     id 11 
     name lowerback
     direction -0.00135702 0.993803 0.111144   
     length 1.91308   
     axis 0 0 0   XYZ
    dof rx ry rz
    limits (-20.0 45.0)
           (-30.0 30.0)
           (-30.0 30.0)
  end
  begin
     id 12 
     name upperback
     direction -0.0056745 0.999813 0.0184631   
     length 1.9212   
     axis 0 0 0   XYZ
    dof rx ry rz
    limits (-20.0 45.0)
           (-30.0 30.0)
           (-30.0 30.0)
  end
  begin
     id 13 
     name thorax
     direction -0.00733434 0.999426 -0.0330788   
     length 1.94196   
     axis 0 0 0   XYZ
    dof rx ry rz
    limits (-20.0 45.0)
           (-30.0 30.0)
           (-30.0 30.0)
  end
  begin
     id 14 
     name lowerneck
     direction 0.0563074 0.996944 -0.0541571   
     length 2.34257   
     axis 0 0 0   XYZ
    dof rx ry rz
    limits (-20.0 45.0)
           (-30.0 30.0)
           (-30.0 30.0)
  end
  begin
     id 15 
     name upperneck
     direction -0.0544519 0.976166 -0.210085   
     length 2.32506   
     axis 0 0 0   XYZ
    dof rx ry rz
    limits (-20.0 45.0)
           (-30.0 30.0)
           (-30.0 30.0)
  end
  begin
     id 16
     name head
     direction -0.0226035 0.997615 -0.0652205  
     length 2.3648  
     axis 0 0 0   XYZ
    dof rx ry rz
    limits (-20.0 45.0)
           (-30.0 30.0)
           (-30.0 30.0)
  end
  begin
     id 17 
     name lclavicle
     direction 0.92109 0.381297 -0.0787716  
     length 4.0487  
     axis 0 0 0   XYZ
    dof ry rz
    limits (-20.0 10.0)
           (0.0 20.0)
  end
  begin
     id 18 
     name lhumerus
     direction 1 -4.48986e-011 3.56724e-027   
     length 4.94991   
     axis 180 -30 -90   XYZ
    dof rx ry rz
    limits (-60.0 90.0)
           (-90.0 90.0)
           (-90.0 90.0)
  end
  begin
     id 19
     name lradius
     direction 1 -4.48981e-011 8.62147e-027   
     length 2.7606   
     axis 180 -30 -90   XYZ
    dof rx
    limits (-10.0 170.0)
  end
  begin
     id 20
     name lwrist
     direction 1 -4.48989e-011 1.59799e-026   
     length 1.3803   
     axis -1.17785e-014 90 90   XYZ
    dof ry
    limits (-180.0 0.0)
 end
  begin
     id 21 
     name lhand
     direction 1 -4.48896e-011 3.19599e-026   
     length 0.843936   
     axis -2.03931e-014 90 90   XYZ
    dof rx rz
    limits (-90.0 90.0)
           (-45.0 45.0)
  end
  begin
     id 22 
     name lfingers
     direction 1 -4.48887e-011 6.39197e-026   
     length 0.680403   
     axis -4.07862e-014 90 90   XYZ
    dof rx
    limits (0.0 90.0)
  end
  begin
     id 23
     name lthumb
     direction 0.707107 -6.348e-011 0.707107   
     length 0.976926   
     axis -90 45 2.85299e-015   XYZ
    dof rx rz
    limits (-45.0 45.0)
           (-45.0 45.0)
  end
  begin
     id 24 
     name rclavicle
     direction -0.951104 0.307692 -0.026953   
     length 4.21801  
     axis 0 0 0   XYZ 
    dof ry rz
    limits (-10.0 20.0)
           (-20.0 0.0)
  end
  begin
     id 25 
     name rhumerus
     direction -1 -4.4896e-011 -1.8171e-018  
     length 4.32982   
     axis 180 30 90   XYZ
    dof rx ry rz
    limits (-90.0 60.0)
           (-90.0 90.0)
           (-90.0 90.0)
  end
  begin
     id 26 
     name rradius
     direction -1 -4.48959e-011 8.25165e-027   
     length 3.20057   
     axis 180 30 90   XYZ
    dof rx
    limits (-10.0 170.0)
  end
  begin
     id 27 
     name rwrist
     direction -1 -4.48997e-011 1.59799e-026   
     length 1.60029   
     axis -1.17785e-014 -90 -90   XYZ
    dof ry
    limits (-180.0 0.0)
  end
  begin
     id 28
     name rhand
     direction -1 -4.49023e-011 3.19599e-026   
     length 0.960433   
     axis -2.03931e-014 -90 -90   XYZ
    dof rx rz
    limits (-90.0 90.0)
           (-45.0 45.0)
  end
  begin
     id 29
     name rfingers
     direction -1 -4.48802e-011 6.39197e-026   
     length 0.774326   
     axis -4.07862e-014 -90 -90   XYZ
    dof rx
    limits (0.0 90.0)
  end
  begin
     id 30
     name rthumb
     direction -0.707107 -6.34876e-011 0.707107   
     length 1.11178   
     axis -90 -45 -2.85299e-015   XYZ
    dof rx rz
    limits (-45.0 45.0)
           (-45.0 45.0)
  end
:hierarchy
  begin
    root lhipjoint rhipjoint lowerback
    lhipjoint lfemur
    lfemur ltibia
    ltibia lfoot
    lfoot ltoes
    rhipjoint rfemur
    rfemur rtibia
    rtibia rfoot
    rfoot rtoes
    lowerback upperback
    upperback thorax
    thorax lowerneck lclavicle rclavicle
    lowerneck upperneck
    upperneck head
    lclavicle lhumerus
    lhumerus lradius
    lradius lwrist
    lwrist lhand lthumb
    lhand lfingers
    rclavicle rhumerus
    rhumerus rradius
    rradius rwrist
    rwrist rhand rthumb
    rhand rfingers
end

#!OML:ASF C:\KaitlinTest1\Natural Motions\Nikki\Session 2\Nikki.ASF
:FULLY-SPECIFIED
:DEGREES
94
root -18.8594 16.6267 5.0162 -154.228 85.6235 -164.08
lowerback -13.2194 -1.67508 0.2124
upperback -3.98061 -2.05022 -0.402512
thorax 3.19973 -0.942036 -0.856363
lowerneck -1.88992 1.67563 8.35151
upperneck 27.2853 3.9935 -5.67045
head 9.09329 2.58866 -3.00103
rclavicle 9.96408e-015 2.78299e-015
rhumerus -41.8437 -21.9079 -79.0837
rradius 18.2851
rwrist 29.0486
rhand -35.9286 2.95197
rfingers 7.12502
rthumb -9.04092 -26.8343
lclavicle 9.96408e-015 2.78299e-015
lhumerus -41.8797 15.3706 81.1418
lradius 24.1599
lwrist -38.7689
lhand -32.9858 3.65897
lfingers 7.12502
lthumb -6.20052 33.5482
rfemur -7.32022 -16.3115 20.891
rtibia 10.7743
rfoot -10.562 11.3561
rtoes -3.73715e-014
lfemur -9.92771 12.033 -17.922
ltibia 10.0662
lfoot -2.4015 -16.8979
ltoes -7.95139e-015
95
root -18.8584 16.6263 5.01615 -154.115 85.6265 -163.958
lowerback -13.21 -1.66379 0.227385
upperback -3.98364 -2.03638 -0.42093
thorax 3.19047 -0.935223 -0.881486
lowerneck -1.88338 1.66338 8.37397
upperneck 27.2842 3.96997 -5.65363
head 9.09013 2.58159 -3.00112
rclavicle -1.19519e-014 -4.77083e-015
rhumerus -41.8585 -21.8787 -79.1456
rradius 18.338
rwrist 28.9545
rhand -35.8791 2.86761
rfingers 7.12502
rthumb -8.99315 -26.9207
lclavicle -1.19519e-014 -4.77083e-015
lhumerus -41.907 15.4303 81.0501
lradius 24.1457
lwrist -38.9422
lhand -32.9789 3.6024
lfingers 7.12502
lthumb -6.19384 33.4918
rfemur -7.29562 -16.3002 20.8952
rtibia 10.7614
rfoot -10.5377 11.3495
rtoes -9.54166e-015
lfemur -9.91878 12.0402 -17.9091
ltibia 10.0802
lfoot -2.40476 -16.9113
ltoes 1.90833e-014
96
root -18.8573 16.6269 5.01639 -154.157 85.645 -164.018
lowerback -13.2257 -1.66566 0.203954
upperback -3.97854 -2.03547 -0.4294
thorax 3.20487 -0.934732 -0.877555
lowerneck -1.88456 1.66935 8.37597
upperneck 27.2476 3.9708 -5.64393
head 9.07743 2.58143 -2.99769
rclavicle 2.44008e-014 7.95139e-015
rhumerus -41.8213 -21.7908 -79.2426
rradius 18.3729
rwrist 28.8787
rhand -35.8617 2.77926
rfingers 7.12502
rthumb -8.97635 -27.0098
lclavicle 2.44008e-014 7.95139e-015
lhumerus -41.8964 15.409 81.053
lradius 24.1785
lwrist -38.8838
lhand -32.9365 3.55122
lfingers 7.12502
lthumb -6.15294 33.4419
rfemur -7.31404 -16.3009 20.8896
rtibia 10.7479
rfoot -10.5071 11.3632
rtoes 7.63333e-014
lfemur -9.93822 12.031 -17.9225
ltibia 10.0942
lfoot -2.42599 -16.8783
ltoes 7.63333e-014
97
root -18.8568 16.6264 5.01654 -154.164 85.6419 -164.027
lowerback -13.1931 -1.66884 0.189797
upperback -4.00572 -2.03714 -0.424626
thorax 3.15939 -0.935443 -0.863356
lowerneck -1.85885 1.66081 8.36102
upperneck 27.2517 3.96217 -5.63569
head 9.07293 2.57783 -2.99322
rclavicle -2.12948e-014 -8.34896e-015
rhumerus -41.869 -21.747 -79.2313
rradius 18.3858
rwrist 28.8767
rhand -35.8553 2.75758
rfingers 7.12502
rthumb -8.97014 -27.0317
lclavicle -2.12948e-014 -8.34896e-015
lhumerus -41.9363 15.4264 81.0349
lradius 24.1521
lwrist -38.965
lhand -32.9383 3.58918
lfingers 7.12502
lthumb -6.1546 33.4798
rfemur -7.31023 -16.2467 20.8884
rtibia 10.7529
rfoot -10.5523 11.3155
rtoes 1.90833e-014
lfemur -9.93812 12.0547 -17.9217
ltibia 10.0864
lfoot -2.40728 -16.9098
ltoes -2.22639e-014
98
root -18.856 16.6265 5.01638 -154.052 85.6436 -163.907
lowerback -13.1956 -1.66656 0.195737
upperback -3.9922 -2.03513 -0.433637
thorax 3.17437 -0.934623 -0.876115
lowerneck -1.87352 1.66411 8.37821
upperneck 27.2312 3.95998 -5.63438
head 9.06864 2.57718 -2.99563
rclavicle -1.17283e-014 1.98785e-015
rhumerus -41.8751 -21.8433 -79.1958
rradius 18.3777
rwrist 28.9324
rhand -35.8746 2.86342
rfingers 7.12502
rthumb -8.98876 -26.9251
lclavicle -1.17283e-014 1.98785e-015
lhumerus -41.9177 15.4183 81.0249
lradius 24.1129
lwrist -38.975
lhand -32.9676 3.56393
lfingers 7.12502
lthumb -6.18288 33.4537
rfemur -7.30258 -16.2281 20.8941
rtibia 10.7619
rfoot -10.5332 11.3047
rtoes 9.06458e-014
lfemur -9.91723 12.0411 -17.9068
ltibia 10.0721
lfoot -2.40259 -16.898
ltoes 6.52014e-014
99
root -18.8549 16.6265 5.01584 -154.377 85.6632 -164.225
lowerback -13.1944 -1.6763 0.154807
upperback -3.98247 -2.04314 -0.434316
thorax 3.18525 -0.938761 -0.855193
lowerneck -1.88563 1.67479 8.3459
upperneck 27.2146 3.96837 -5.60921
head 9.06468 2.57905 -2.98027
rclavicle 2.1096e-014 1.19271e-015
rhumerus -41.8479 -21.6847 -79.2672
rradius 18.4152
rwrist 28.8641
rhand -35.8116 2.73764
rfingers 7.12502
rthumb -8.92796 -27.0535
lclavicle 2.1096e-014 1.19271e-015
lhumerus -41.9163 15.3995 81.0646
lradius 24.1312
lwrist -38.871
lhand -33.0049 3.5759
lfingers 7.12502
lthumb -6.21897 33.4646
rfemur -7.29117 -16.2731 20.8597
rtibia 10.757
rfoot -10.5328 11.3415
rtoes 3.97569e-015
lfemur -9.90154 12.0329 -17.9399
ltibia 10.0734
lfoot -2.40855 -16.8851
ltoes 2.54444e-014
